<svg
  width="200px"
  height="200px"
  xmlns="http://www.w3.org/2000/svg"
  viewBox="0 0 100 100"
  preserveAspectRatio="xMidYMid"
  class="lds-infinity"
  style="background: none;"
>
  <line x1="25" x2="40" y1="50" y2="22" style="stroke:#0094FF;stroke-width:3" stroke-linecap="round"/>
  <line x1="25" x2="50" y1="50" y2="50" style="stroke:#0094FF;stroke-width:3" stroke-linecap="round"/>
  <line x1="50" x2="66" y1="50" y2="27" style="stroke:#0094FF;stroke-width:3" stroke-linecap="round"/>
  <line x1="50" x2="38" y1="50" y2="15" style="stroke:#0094FF;stroke-width:3" stroke-linecap="round"/>
  <line x1="36" x2="43" y1="15" y2="15" style="stroke:#31393C;stroke-width:3" stroke-linecap="round"/>
  <line x1="40" x2="66" y1="22" y2="22" style="stroke:#0094FF;stroke-width:3" stroke-linecap="round"/>
  <line x1="66" x2="66" y1="22" y2="25" style="stroke:#0094FF;stroke-width:3" stroke-linecap="round"/>
  <line x1="66" x2="66" y1="22" y2="20" style="stroke:#0094FF;stroke-width:3" stroke-linecap="round"/>
  <line x1="66" x2="75" y1="20" y2="20" style="stroke:#31393C;stroke-width:3" stroke-linecap="round"/>
  <line x1="66" x2="75" y1="25" y2="50" style="stroke:#0094FF;stroke-width:3" stroke-linecap="round"/>
  <path d="M75,20 c0,0 3,6 -3,6" fill="none" stroke="#31393C" stroke-width="3" stroke-linecap="round" />
  <path
    fill="none"
    ng-attr-stroke="{{config.stroke}}"
    ng-attr-stroke-width="{{config.width}}"
    ng-attr-stroke-dasharray="{{config.dasharray}}"
    d="M24.3,30C11.4,30,5,43.3,5,50s6.4,20,19.3,20c19.3,0,32.1-40,51.4-40 C88.6,30,95,43.3,95,50s-6.4,20-19.3,20C56.4,70,43.6,30,24.3,30z"
    stroke="#31393C"
    stroke-width="2"
    stroke-dasharray="6.414723205566406 6.414723205566406"
  >
    <animate
      attributeName="stroke-dashoffset"
      calcMode="linear"
      values="0;256.58892822265625"
      keyTimes="0;1"
      dur="2.5"
      begin="0s"
      repeatCount="indefinite"
    />
  </path>
</svg>
